<svg xmlns="http://www.w3.org/2000/svg" version="1.1" xmlns:xlink="http://www.w3.org/1999/xlink" width="1000" height="1000"><g clip-path="url(#SvgjsClipPath1128)"><rect width="1000" height="1000" fill="#ffffff"></rect><g transform="matrix(1.8,0,0,1.8,50,50)"><svg xmlns="http://www.w3.org/2000/svg" version="1.1" xmlns:xlink="http://www.w3.org/1999/xlink" width="500" height="500"><svg xmlns="http://www.w3.org/2000/svg" xmlns:xlink="http://www.w3.org/1999/xlink" width="500" zoomAndPan="magnify" viewBox="0 0 375 374.999991" height="500" preserveAspectRatio="xMidYMid meet" version="1.2"><defs><clipPath id="b520e63fcd"><path d="M 161.246094 176.277344 L 172.496094 176.277344 L 172.496094 187.527344 L 161.246094 187.527344 Z M 161.246094 176.277344 "></path></clipPath><clipPath id="4fd4a0ac3b"><path d="M 203.558594 176.277344 L 214.808594 176.277344 L 214.808594 187.527344 L 203.558594 187.527344 Z M 203.558594 176.277344 "></path></clipPath><clipPath id="SvgjsClipPath1128"><rect width="1000" height="1000" x="0" y="0" rx="250" ry="250"></rect></clipPath></defs><g id="c1beac039e"><g style="fill:#000000;fill-opacity:1;"><g transform="translate(78.912663, 133.322844)"><path style="stroke:none" d="M 174.5625 -128.59375 L 216.296875 -128.59375 L 216.296875 -113.921875 L 205.109375 -113.921875 L 168.375 0 L 142.421875 0 L 107.5625 -112.046875 L 75.40625 0 L 49.703125 0 L 12.21875 -113.921875 L 0.84375 -113.921875 L 0.84375 -128.59375 L 42.578125 -128.59375 L 42.578125 -113.921875 L 31.390625 -113.921875 L 62.515625 -15.09375 L 95.34375 -128.59375 L 120.703125 -128.59375 L 155.65625 -15.09375 L 187.375 -113.921875 L 174.5625 -113.921875 Z M 174.5625 -128.59375 "></path></g></g><g style="fill:#000000;fill-opacity:1;"><g transform="translate(128.704434, 121.308657)"><path style="stroke:none" d="M 13.484375 11.21875 L 13.484375 22.515625 L 105.328125 22.515625 L 105.328125 11.21875 L 119.0625 11.21875 L 118.90625 64.703125 C 118.90625 69.515625 118 74.035156 116.1875 78.265625 C 114.382812 82.503906 111.925781 86.191406 108.8125 89.328125 C 105.707031 92.460938 102.035156 94.929688 97.796875 96.734375 C 93.566406 98.546875 89.019531 99.453125 84.15625 99.453125 C 79.082031 99.453125 74.453125 98.039062 70.265625 95.21875 C 66.085938 92.394531 62.742188 88.367188 60.234375 83.140625 C 58.867188 85.703125 57.285156 88.023438 55.484375 90.109375 C 53.679688 92.203125 51.707031 93.976562 49.5625 95.4375 C 47.425781 96.90625 45.15625 98.046875 42.75 98.859375 C 40.34375 99.671875 37.882812 100.078125 35.375 100.078125 C 30.40625 100.078125 25.773438 99.175781 21.484375 97.375 C 17.203125 95.570312 13.460938 93.097656 10.265625 89.953125 C 7.078125 86.816406 4.566406 83.144531 2.734375 78.9375 C 0.910156 74.726562 0 70.21875 0 65.40625 L 0 11.21875 Z M 52.859375 37.875 L 13.484375 37.875 L 13.484375 65.5625 C 13.484375 68.070312 14.109375 70.398438 15.359375 72.546875 C 16.617188 74.691406 18.253906 76.570312 20.265625 78.1875 C 22.285156 79.8125 24.578125 81.082031 27.140625 82 C 29.703125 82.914062 32.316406 83.375 34.984375 83.375 C 37.285156 83.375 39.503906 82.898438 41.640625 81.953125 C 43.785156 81.015625 45.691406 79.75 47.359375 78.15625 C 49.035156 76.5625 50.367188 74.675781 51.359375 72.5 C 52.359375 70.332031 52.859375 68.019531 52.859375 65.5625 Z M 105.328125 37.875 L 66.515625 37.875 L 66.515625 64.859375 C 66.515625 67.367188 67.007812 69.707031 68 71.875 C 68.988281 74.050781 70.320312 75.9375 72 77.53125 C 73.675781 79.125 75.609375 80.390625 77.796875 81.328125 C 79.992188 82.273438 82.269531 82.75 84.625 82.75 C 87.1875 82.75 89.707031 82.273438 92.1875 81.328125 C 94.675781 80.390625 96.882812 79.109375 98.8125 77.484375 C 100.75 75.867188 102.316406 73.972656 103.515625 71.796875 C 104.722656 69.628906 105.328125 67.316406 105.328125 64.859375 Z M 105.328125 37.875 "></path></g></g><g style="fill:#000000;fill-opacity:1;"><g transform="translate(79.503996, 368.056879)"><path style="stroke:none" d="M 13.65625 -144.75 L 117.34375 -144.75 L 117.34375 -103.78125 L 97.78125 -103.78125 L 97.78125 -128.234375 L 46.125 -128.234375 L 46.125 -81.921875 L 89.5625 -81.921875 L 89.5625 -65.5 L 46.125 -65.5 L 46.125 -16.421875 L 97.78125 -16.421875 L 97.78125 -40.859375 L 117.34375 -40.859375 L 117.34375 0 L 13.65625 0 L 13.65625 -16.421875 L 27.40625 -16.421875 L 27.40625 -128.234375 L 13.65625 -128.234375 Z M 13.65625 -144.75 "></path></g></g><g style="fill:#000000;fill-opacity:1;"><g transform="translate(173.73773, 368.056879)"><path style="stroke:none" d="M 43.25 -16.421875 L 56.53125 -16.421875 L 56.53125 -129.09375 L 23.484375 -129.09375 L 23.484375 -106.5625 L 3.921875 -106.5625 L 3.921875 -144.75 L 133 -144.75 L 133 -106.5625 L 113.4375 -106.5625 L 113.4375 -129.09375 L 75.234375 -129.09375 L 75.234375 -16.421875 L 90.140625 -16.421875 L 90.140625 0 L 43.25 0 Z M 43.25 -16.421875 "></path></g></g><g clip-rule="nonzero" clip-path="url(#b520e63fcd)"><path style=" stroke:none;fill-rule:nonzero;fill:#000000;fill-opacity:1;" d="M 172.496094 181.902344 C 172.496094 182.273438 172.460938 182.636719 172.386719 183 C 172.316406 183.363281 172.210938 183.714844 172.066406 184.054688 C 171.925781 184.398438 171.753906 184.722656 171.546875 185.027344 C 171.34375 185.335938 171.109375 185.621094 170.847656 185.878906 C 170.585938 186.140625 170.304688 186.375 169.996094 186.582031 C 169.6875 186.785156 169.363281 186.957031 169.023438 187.101562 C 168.683594 187.242188 168.332031 187.347656 167.96875 187.421875 C 167.605469 187.492188 167.242188 187.527344 166.871094 187.527344 C 166.5 187.527344 166.136719 187.492188 165.773438 187.421875 C 165.410156 187.347656 165.058594 187.242188 164.71875 187.101562 C 164.378906 186.957031 164.054688 186.785156 163.746094 186.582031 C 163.4375 186.375 163.15625 186.140625 162.894531 185.878906 C 162.632812 185.621094 162.398438 185.335938 162.195312 185.027344 C 161.988281 184.722656 161.816406 184.398438 161.675781 184.054688 C 161.53125 183.714844 161.425781 183.363281 161.355469 183 C 161.28125 182.636719 161.246094 182.273438 161.246094 181.902344 C 161.246094 181.535156 161.28125 181.167969 161.355469 180.804688 C 161.425781 180.445312 161.53125 180.089844 161.675781 179.75 C 161.816406 179.410156 161.988281 179.085938 162.195312 178.777344 C 162.398438 178.472656 162.632812 178.1875 162.894531 177.925781 C 163.15625 177.664062 163.4375 177.429688 163.746094 177.226562 C 164.054688 177.019531 164.378906 176.847656 164.71875 176.707031 C 165.058594 176.566406 165.410156 176.457031 165.773438 176.386719 C 166.136719 176.3125 166.5 176.277344 166.871094 176.277344 C 167.242188 176.277344 167.605469 176.3125 167.96875 176.386719 C 168.332031 176.457031 168.683594 176.566406 169.023438 176.707031 C 169.363281 176.847656 169.6875 177.019531 169.996094 177.226562 C 170.304688 177.429688 170.585938 177.664062 170.847656 177.925781 C 171.109375 178.1875 171.34375 178.472656 171.546875 178.777344 C 171.753906 179.085938 171.925781 179.410156 172.066406 179.75 C 172.210938 180.089844 172.316406 180.445312 172.386719 180.804688 C 172.460938 181.167969 172.496094 181.535156 172.496094 181.902344 Z M 172.496094 181.902344 "></path></g><g clip-rule="nonzero" clip-path="url(#4fd4a0ac3b)"><path style=" stroke:none;fill-rule:nonzero;fill:#000000;fill-opacity:1;" d="M 214.808594 181.902344 C 214.808594 182.273438 214.773438 182.636719 214.699219 183 C 214.628906 183.363281 214.519531 183.714844 214.378906 184.054688 C 214.238281 184.398438 214.066406 184.722656 213.859375 185.027344 C 213.65625 185.335938 213.421875 185.621094 213.160156 185.878906 C 212.898438 186.140625 212.613281 186.375 212.308594 186.582031 C 212 186.785156 211.675781 186.957031 211.335938 187.101562 C 210.996094 187.242188 210.640625 187.347656 210.28125 187.421875 C 209.917969 187.492188 209.550781 187.527344 209.183594 187.527344 C 208.8125 187.527344 208.449219 187.492188 208.085938 187.421875 C 207.722656 187.347656 207.371094 187.242188 207.03125 187.101562 C 206.6875 186.957031 206.363281 186.785156 206.058594 186.582031 C 205.75 186.375 205.464844 186.140625 205.207031 185.878906 C 204.945312 185.621094 204.710938 185.335938 204.503906 185.027344 C 204.300781 184.722656 204.128906 184.398438 203.984375 184.054688 C 203.84375 183.714844 203.738281 183.363281 203.664062 183 C 203.59375 182.636719 203.558594 182.273438 203.558594 181.902344 C 203.558594 181.535156 203.59375 181.167969 203.664062 180.804688 C 203.738281 180.445312 203.84375 180.089844 203.984375 179.75 C 204.128906 179.410156 204.300781 179.085938 204.503906 178.777344 C 204.710938 178.472656 204.945312 178.1875 205.207031 177.925781 C 205.464844 177.664062 205.75 177.429688 206.058594 177.226562 C 206.363281 177.019531 206.6875 176.847656 207.03125 176.707031 C 207.371094 176.566406 207.722656 176.457031 208.085938 176.386719 C 208.449219 176.3125 208.8125 176.277344 209.183594 176.277344 C 209.550781 176.277344 209.917969 176.3125 210.28125 176.386719 C 210.640625 176.457031 210.996094 176.566406 211.335938 176.707031 C 211.675781 176.847656 212 177.019531 212.308594 177.226562 C 212.613281 177.429688 212.898438 177.664062 213.160156 177.925781 C 213.421875 178.1875 213.65625 178.472656 213.859375 178.777344 C 214.066406 179.085938 214.238281 179.410156 214.378906 179.75 C 214.519531 180.089844 214.628906 180.445312 214.699219 180.804688 C 214.773438 181.167969 214.808594 181.535156 214.808594 181.902344 Z M 214.808594 181.902344 "></path></g></g></svg></svg></g></g></svg>