<svg xmlns="http://www.w3.org/2000/svg" xmlns:xlink="http://www.w3.org/1999/xlink" width="500" zoomAndPan="magnify" viewBox="0 0 375 374.999991" height="500" preserveAspectRatio="xMidYMid meet" version="1.2"><defs><clipPath id="fd3013dca9"><path d="M 161.246094 176.277344 L 172.496094 176.277344 L 172.496094 187.527344 L 161.246094 187.527344 Z M 161.246094 176.277344 "/></clipPath><clipPath id="5a18c60ed7"><path d="M 203.558594 176.277344 L 214.808594 176.277344 L 214.808594 187.527344 L 203.558594 187.527344 Z M 203.558594 176.277344 "/></clipPath></defs><g id="65027e6ee8"><g style="fill:#ffffff;fill-opacity:1;"><g transform="translate(78.912663, 133.322844)"><path style="stroke:none" d="M 174.5625 -128.59375 L 216.296875 -128.59375 L 216.296875 -113.921875 L 205.109375 -113.921875 L 168.375 0 L 142.421875 0 L 107.5625 -112.046875 L 75.40625 0 L 49.703125 0 L 12.21875 -113.921875 L 0.84375 -113.921875 L 0.84375 -128.59375 L 42.578125 -128.59375 L 42.578125 -113.921875 L 31.390625 -113.921875 L 62.515625 -15.09375 L 95.34375 -128.59375 L 120.703125 -128.59375 L 155.65625 -15.09375 L 187.375 -113.921875 L 174.5625 -113.921875 Z M 174.5625 -128.59375 "/></g></g><g style="fill:#ffffff;fill-opacity:1;"><g transform="translate(128.704434, 121.308657)"><path style="stroke:none" d="M 13.484375 11.21875 L 13.484375 22.515625 L 105.328125 22.515625 L 105.328125 11.21875 L 119.0625 11.21875 L 118.90625 64.703125 C 118.90625 69.515625 118 74.035156 116.1875 78.265625 C 114.382812 82.503906 111.925781 86.191406 108.8125 89.328125 C 105.707031 92.460938 102.035156 94.929688 97.796875 96.734375 C 93.566406 98.546875 89.019531 99.453125 84.15625 99.453125 C 79.082031 99.453125 74.453125 98.039062 70.265625 95.21875 C 66.085938 92.394531 62.742188 88.367188 60.234375 83.140625 C 58.867188 85.703125 57.285156 88.023438 55.484375 90.109375 C 53.679688 92.203125 51.707031 93.976562 49.5625 95.4375 C 47.425781 96.90625 45.15625 98.046875 42.75 98.859375 C 40.34375 99.671875 37.882812 100.078125 35.375 100.078125 C 30.40625 100.078125 25.773438 99.175781 21.484375 97.375 C 17.203125 95.570312 13.460938 93.097656 10.265625 89.953125 C 7.078125 86.816406 4.566406 83.144531 2.734375 78.9375 C 0.910156 74.726562 0 70.21875 0 65.40625 L 0 11.21875 Z M 52.859375 37.875 L 13.484375 37.875 L 13.484375 65.5625 C 13.484375 68.070312 14.109375 70.398438 15.359375 72.546875 C 16.617188 74.691406 18.253906 76.570312 20.265625 78.1875 C 22.285156 79.8125 24.578125 81.082031 27.140625 82 C 29.703125 82.914062 32.316406 83.375 34.984375 83.375 C 37.285156 83.375 39.503906 82.898438 41.640625 81.953125 C 43.785156 81.015625 45.691406 79.75 47.359375 78.15625 C 49.035156 76.5625 50.367188 74.675781 51.359375 72.5 C 52.359375 70.332031 52.859375 68.019531 52.859375 65.5625 Z M 105.328125 37.875 L 66.515625 37.875 L 66.515625 64.859375 C 66.515625 67.367188 67.007812 69.707031 68 71.875 C 68.988281 74.050781 70.320312 75.9375 72 77.53125 C 73.675781 79.125 75.609375 80.390625 77.796875 81.328125 C 79.992188 82.273438 82.269531 82.75 84.625 82.75 C 87.1875 82.75 89.707031 82.273438 92.1875 81.328125 C 94.675781 80.390625 96.882812 79.109375 98.8125 77.484375 C 100.75 75.867188 102.316406 73.972656 103.515625 71.796875 C 104.722656 69.628906 105.328125 67.316406 105.328125 64.859375 Z M 105.328125 37.875 "/></g></g><g style="fill:#ffffff;fill-opacity:1;"><g transform="translate(79.503996, 368.056879)"><path style="stroke:none" d="M 13.65625 -144.75 L 117.34375 -144.75 L 117.34375 -103.78125 L 97.78125 -103.78125 L 97.78125 -128.234375 L 46.125 -128.234375 L 46.125 -81.921875 L 89.5625 -81.921875 L 89.5625 -65.5 L 46.125 -65.5 L 46.125 -16.421875 L 97.78125 -16.421875 L 97.78125 -40.859375 L 117.34375 -40.859375 L 117.34375 0 L 13.65625 0 L 13.65625 -16.421875 L 27.40625 -16.421875 L 27.40625 -128.234375 L 13.65625 -128.234375 Z M 13.65625 -144.75 "/></g></g><g style="fill:#ffffff;fill-opacity:1;"><g transform="translate(173.73773, 368.056879)"><path style="stroke:none" d="M 43.25 -16.421875 L 56.53125 -16.421875 L 56.53125 -129.09375 L 23.484375 -129.09375 L 23.484375 -106.5625 L 3.921875 -106.5625 L 3.921875 -144.75 L 133 -144.75 L 133 -106.5625 L 113.4375 -106.5625 L 113.4375 -129.09375 L 75.234375 -129.09375 L 75.234375 -16.421875 L 90.140625 -16.421875 L 90.140625 0 L 43.25 0 Z M 43.25 -16.421875 "/></g></g><g clip-rule="nonzero" clip-path="url(#fd3013dca9)"><path style=" stroke:none;fill-rule:nonzero;fill:#ffffff;fill-opacity:1;" d="M 172.203125 181.757812 C 172.203125 182.117188 172.167969 182.472656 172.097656 182.824219 C 172.027344 183.179688 171.921875 183.519531 171.785156 183.851562 C 171.648438 184.183594 171.480469 184.5 171.28125 184.800781 C 171.078125 185.097656 170.851562 185.375 170.597656 185.628906 C 170.34375 185.886719 170.066406 186.113281 169.769531 186.3125 C 169.46875 186.511719 169.152344 186.679688 168.820312 186.816406 C 168.488281 186.957031 168.144531 187.058594 167.792969 187.128906 C 167.441406 187.199219 167.085938 187.234375 166.722656 187.234375 C 166.363281 187.234375 166.007812 187.199219 165.65625 187.128906 C 165.304688 187.058594 164.960938 186.957031 164.628906 186.816406 C 164.296875 186.679688 163.980469 186.511719 163.679688 186.3125 C 163.382812 186.113281 163.105469 185.886719 162.851562 185.628906 C 162.597656 185.375 162.367188 185.097656 162.167969 184.800781 C 161.96875 184.5 161.800781 184.183594 161.664062 183.851562 C 161.523438 183.519531 161.421875 183.179688 161.351562 182.824219 C 161.28125 182.472656 161.246094 182.117188 161.246094 181.757812 C 161.246094 181.398438 161.28125 181.039062 161.351562 180.6875 C 161.421875 180.335938 161.523438 179.992188 161.664062 179.660156 C 161.800781 179.328125 161.96875 179.011719 162.167969 178.714844 C 162.367188 178.414062 162.597656 178.136719 162.851562 177.882812 C 163.105469 177.628906 163.382812 177.402344 163.679688 177.203125 C 163.980469 177 164.296875 176.832031 164.628906 176.695312 C 164.960938 176.558594 165.304688 176.453125 165.65625 176.382812 C 166.007812 176.3125 166.363281 176.277344 166.722656 176.277344 C 167.085938 176.277344 167.441406 176.3125 167.792969 176.382812 C 168.144531 176.453125 168.488281 176.558594 168.820312 176.695312 C 169.152344 176.832031 169.46875 177 169.769531 177.203125 C 170.066406 177.402344 170.34375 177.628906 170.597656 177.882812 C 170.851562 178.136719 171.078125 178.414062 171.28125 178.714844 C 171.480469 179.011719 171.648438 179.328125 171.785156 179.660156 C 171.921875 179.992188 172.027344 180.335938 172.097656 180.6875 C 172.167969 181.039062 172.203125 181.398438 172.203125 181.757812 Z M 172.203125 181.757812 "/></g><g clip-rule="nonzero" clip-path="url(#5a18c60ed7)"><path style=" stroke:none;fill-rule:nonzero;fill:#ffffff;fill-opacity:1;" d="M 214.515625 181.757812 C 214.515625 182.117188 214.480469 182.472656 214.410156 182.824219 C 214.339844 183.179688 214.234375 183.519531 214.097656 183.851562 C 213.960938 184.183594 213.792969 184.5 213.589844 184.800781 C 213.390625 185.097656 213.164062 185.375 212.910156 185.628906 C 212.65625 185.886719 212.378906 186.113281 212.078125 186.3125 C 211.78125 186.511719 211.464844 186.679688 211.132812 186.816406 C 210.800781 186.957031 210.457031 187.058594 210.105469 187.128906 C 209.753906 187.199219 209.394531 187.234375 209.035156 187.234375 C 208.675781 187.234375 208.320312 187.199219 207.96875 187.128906 C 207.613281 187.058594 207.273438 186.957031 206.941406 186.816406 C 206.605469 186.679688 206.292969 186.511719 205.992188 186.3125 C 205.695312 186.113281 205.417969 185.886719 205.164062 185.628906 C 204.90625 185.375 204.679688 185.097656 204.480469 184.800781 C 204.28125 184.5 204.113281 184.183594 203.976562 183.851562 C 203.835938 183.519531 203.734375 183.179688 203.664062 182.824219 C 203.59375 182.472656 203.558594 182.117188 203.558594 181.757812 C 203.558594 181.398438 203.59375 181.039062 203.664062 180.6875 C 203.734375 180.335938 203.835938 179.992188 203.976562 179.660156 C 204.113281 179.328125 204.28125 179.011719 204.480469 178.714844 C 204.679688 178.414062 204.90625 178.136719 205.164062 177.882812 C 205.417969 177.628906 205.695312 177.402344 205.992188 177.203125 C 206.292969 177 206.605469 176.832031 206.941406 176.695312 C 207.273438 176.558594 207.613281 176.453125 207.96875 176.382812 C 208.320312 176.3125 208.675781 176.277344 209.035156 176.277344 C 209.394531 176.277344 209.753906 176.3125 210.105469 176.382812 C 210.457031 176.453125 210.800781 176.558594 211.132812 176.695312 C 211.464844 176.832031 211.78125 177 212.078125 177.203125 C 212.378906 177.402344 212.65625 177.628906 212.910156 177.882812 C 213.164062 178.136719 213.390625 178.414062 213.589844 178.714844 C 213.792969 179.011719 213.960938 179.328125 214.097656 179.660156 C 214.234375 179.992188 214.339844 180.335938 214.410156 180.6875 C 214.480469 181.039062 214.515625 181.398438 214.515625 181.757812 Z M 214.515625 181.757812 "/></g></g></svg>